<svg width="1033" height="700" viewBox="0 0 1033 700" fill="none" xmlns="http://www.w3.org/2000/svg">
<path opacity="0.1" d="M262.782 280.479H153.373C149.498 280.479 146.357 283.543 146.357 287.322V310.036C146.357 313.815 149.498 316.879 153.373 316.879H262.782C266.657 316.879 269.798 313.815 269.798 310.036V287.322C269.798 283.543 266.657 280.479 262.782 280.479Z" fill="#FFD255"/>
<path opacity="0.1" d="M391.964 316.888H282.555C278.68 316.888 275.539 319.952 275.539 323.732V346.445C275.539 350.224 278.68 353.288 282.555 353.288H391.964C395.839 353.288 398.98 350.224 398.98 346.445V323.732C398.98 319.952 395.839 316.888 391.964 316.888Z" fill="#6C63FF"/>
<path opacity="0.1" d="M521.155 353.288H411.746C407.871 353.288 404.73 356.352 404.73 360.132V382.845C404.73 386.624 407.871 389.688 411.746 389.688H521.155C525.03 389.688 528.171 386.624 528.171 382.845V360.132C528.171 356.352 525.03 353.288 521.155 353.288Z" fill="#FFD255"/>
<path opacity="0.1" d="M262.782 225.879H153.373C149.498 225.879 146.357 228.943 146.357 232.722V255.436C146.357 259.215 149.498 262.279 153.373 262.279H262.782C266.657 262.279 269.798 259.215 269.798 255.436V232.722C269.798 228.943 266.657 225.879 262.782 225.879Z" fill="#FFD255"/>
<path opacity="0.1" d="M391.964 262.279H282.555C278.68 262.279 275.539 265.343 275.539 269.122V291.836C275.539 295.615 278.68 298.679 282.555 298.679H391.964C395.839 298.679 398.98 295.615 398.98 291.836V269.122C398.98 265.343 395.839 262.279 391.964 262.279Z" fill="#6C63FF"/>
<path opacity="0.1" d="M521.155 298.688H411.746C407.871 298.688 404.73 301.752 404.73 305.532V328.245C404.73 332.024 407.871 335.088 411.746 335.088H521.155C525.03 335.088 528.171 332.024 528.171 328.245V305.532C528.171 301.752 525.03 298.688 521.155 298.688Z" fill="#FFD255"/>
<path opacity="0.1" d="M664.689 280.479H555.28C551.405 280.479 548.264 283.543 548.264 287.322V310.036C548.264 313.815 551.405 316.879 555.28 316.879H664.689C668.564 316.879 671.705 313.815 671.705 310.036V287.322C671.705 283.543 668.564 280.479 664.689 280.479Z" fill="#FFD255"/>
<path opacity="0.1" d="M793.871 316.888H684.462C680.587 316.888 677.446 319.952 677.446 323.732V346.445C677.446 350.224 680.587 353.288 684.462 353.288H793.871C797.746 353.288 800.887 350.224 800.887 346.445V323.732C800.887 319.952 797.746 316.888 793.871 316.888Z" fill="#FFD255"/>
<path opacity="0.1" d="M923.062 353.288H813.653C809.778 353.288 806.637 356.352 806.637 360.132V382.845C806.637 386.624 809.778 389.688 813.653 389.688H923.062C926.937 389.688 930.078 386.624 930.078 382.845V360.132C930.078 356.352 926.937 353.288 923.062 353.288Z" fill="#FFD255"/>
<path opacity="0.1" d="M664.689 225.879H555.28C551.405 225.879 548.264 228.943 548.264 232.722V255.436C548.264 259.215 551.405 262.279 555.28 262.279H664.689C668.564 262.279 671.705 259.215 671.705 255.436V232.722C671.705 228.943 668.564 225.879 664.689 225.879Z" fill="#FFD255"/>
<path opacity="0.1" d="M793.871 262.279H684.462C680.587 262.279 677.446 265.343 677.446 269.122V291.836C677.446 295.615 680.587 298.679 684.462 298.679H793.871C797.746 298.679 800.887 295.615 800.887 291.836V269.122C800.887 265.343 797.746 262.279 793.871 262.279Z" fill="#FFD255"/>
<path opacity="0.1" d="M923.062 298.688H813.653C809.778 298.688 806.637 301.752 806.637 305.532V328.245C806.637 332.024 809.778 335.088 813.653 335.088H923.062C926.937 335.088 930.078 332.024 930.078 328.245V305.532C930.078 301.752 926.937 298.688 923.062 298.688Z" fill="#FFD255"/>
<path opacity="0.1" d="M262.782 153.07H153.373C149.498 153.07 146.357 156.134 146.357 159.913V182.626C146.357 186.406 149.498 189.47 153.373 189.47H262.782C266.657 189.47 269.798 186.406 269.798 182.626V159.913C269.798 156.134 266.657 153.07 262.782 153.07Z" fill="#FFD255"/>
<path opacity="0.1" d="M391.964 189.47H282.555C278.68 189.47 275.539 192.534 275.539 196.313V219.026C275.539 222.806 278.68 225.87 282.555 225.87H391.964C395.839 225.87 398.98 222.806 398.98 219.026V196.313C398.98 192.534 395.839 189.47 391.964 189.47Z" fill="#6C63FF"/>
<path opacity="0.1" d="M521.155 225.879H411.746C407.871 225.879 404.73 228.943 404.73 232.722V255.436C404.73 259.215 407.871 262.279 411.746 262.279H521.155C525.03 262.279 528.171 259.215 528.171 255.436V232.722C528.171 228.943 525.03 225.879 521.155 225.879Z" fill="#FFD255"/>
<path opacity="0.1" d="M262.782 98.4605H153.373C149.498 98.4605 146.357 101.524 146.357 105.304V128.017C146.357 131.797 149.498 134.861 153.373 134.861H262.782C266.657 134.861 269.798 131.797 269.798 128.017V105.304C269.798 101.524 266.657 98.4605 262.782 98.4605Z" fill="#FFD255"/>
<path opacity="0.1" d="M391.964 134.87H282.555C278.68 134.87 275.539 137.934 275.539 141.713V164.426C275.539 168.206 278.68 171.27 282.555 171.27H391.964C395.839 171.27 398.98 168.206 398.98 164.426V141.713C398.98 137.934 395.839 134.87 391.964 134.87Z" fill="#6C63FF"/>
<path opacity="0.1" d="M521.155 171.27H411.746C407.871 171.27 404.73 174.334 404.73 178.113V200.826C404.73 204.606 407.871 207.67 411.746 207.67H521.155C525.03 207.67 528.171 204.606 528.171 200.826V178.113C528.171 174.334 525.03 171.27 521.155 171.27Z" fill="#FFD255"/>
<path opacity="0.1" d="M664.689 153.07H555.28C551.405 153.07 548.264 156.134 548.264 159.913V182.626C548.264 186.406 551.405 189.47 555.28 189.47H664.689C668.564 189.47 671.705 186.406 671.705 182.626V159.913C671.705 156.134 668.564 153.07 664.689 153.07Z" fill="#FFD255"/>
<path opacity="0.1" d="M793.871 189.47H684.462C680.587 189.47 677.446 192.534 677.446 196.313V219.026C677.446 222.806 680.587 225.87 684.462 225.87H793.871C797.746 225.87 800.887 222.806 800.887 219.026V196.313C800.887 192.534 797.746 189.47 793.871 189.47Z" fill="#FFD255"/>
<path opacity="0.1" d="M923.062 225.879H813.653C809.778 225.879 806.637 228.943 806.637 232.722V255.436C806.637 259.215 809.778 262.279 813.653 262.279H923.062C926.937 262.279 930.078 259.215 930.078 255.436V232.722C930.078 228.943 926.937 225.879 923.062 225.879Z" fill="#FFD255"/>
<path opacity="0.1" d="M664.689 98.4605H555.28C551.405 98.4605 548.264 101.524 548.264 105.304V128.017C548.264 131.797 551.405 134.861 555.28 134.861H664.689C668.564 134.861 671.705 131.797 671.705 128.017V105.304C671.705 101.524 668.564 98.4605 664.689 98.4605Z" fill="#FFD255"/>
<path opacity="0.1" d="M793.871 134.87H684.462C680.587 134.87 677.446 137.934 677.446 141.713V164.426C677.446 168.206 680.587 171.27 684.462 171.27H793.871C797.746 171.27 800.887 168.206 800.887 164.426V141.713C800.887 137.934 797.746 134.87 793.871 134.87Z" fill="#FFD255"/>
<path opacity="0.1" d="M923.062 171.27H813.653C809.778 171.27 806.637 174.334 806.637 178.113V200.826C806.637 204.606 809.778 207.67 813.653 207.67H923.062C926.937 207.67 930.078 204.606 930.078 200.826V178.113C930.078 174.334 926.937 171.27 923.062 171.27Z" fill="#FFD255"/>
<path opacity="0.1" d="M516.5 700C801.755 700 1033 658.969 1033 608.355C1033 557.741 801.755 516.711 516.5 516.711C231.245 516.711 0 557.741 0 608.355C0 658.969 231.245 700 516.5 700Z" fill="#FFD255"/>
<path d="M226.618 295.658L183.183 555.395L379.585 535.132L371.087 513.026L217.648 525.461L253.529 295.197L226.618 295.658Z" fill="#3F3D56"/>
<path d="M175.629 0.921053L440.016 0L516.5 564.605L251.168 599.605L175.629 0.921053Z" fill="#3F3D56"/>
<path d="M204.428 22.5658H417.827L492.422 547.566L272.414 577.039L204.428 22.5658Z" fill="white"/>
<path d="M405.684 523.95C407.025 526.455 408.026 529.163 409.772 531.42C414.871 538.07 424.55 539.111 431.811 543.449C432.174 543.629 432.474 543.911 432.67 544.259C433.001 545.024 432.264 545.825 431.556 546.304C426.051 550.071 418.828 550.154 412.095 550.108C409.833 550.186 407.569 549.976 405.363 549.482C401.803 548.561 398.753 546.138 395.241 545.153C393.419 544.709 391.555 544.453 389.679 544.388L382.304 543.9C380.341 543.872 378.397 543.52 376.554 542.859C375.636 542.517 374.822 541.952 374.188 541.219C373.553 540.487 373.12 539.609 372.928 538.668C372.72 537.139 373.391 535.657 373.787 534.164C374.732 530.628 374.439 526.354 377.262 523.941C378.426 523.072 379.759 522.445 381.181 522.099C386.313 520.412 391.552 519.052 396.865 518.028C401.236 517.189 403.748 520.321 405.684 523.95Z" fill="#3F3D56"/>
<path d="M322.27 543.872C322.458 545.834 322.515 548.082 321.061 549.454C320.156 550.187 319.062 550.665 317.898 550.836C310.92 552.42 303.139 552.53 297.068 548.828C296.436 548.476 295.879 548.01 295.425 547.455C294.919 546.7 294.631 545.824 294.594 544.922C294.377 542.316 295.198 539.746 295.944 537.232C297.709 531.265 299.05 525.187 299.957 519.041C300.033 518.534 317.775 521.804 318.955 523.517C320.438 525.636 320.447 530.72 320.844 533.243C321.442 536.768 321.917 540.311 322.27 543.872Z" fill="#3F3D56"/>
<path d="M388.31 304.196L393.031 347.016C393.975 355.766 394.967 364.562 394.315 373.339C393.56 383.471 390.652 393.603 391.879 403.642C392.361 407.547 393.456 411.379 393.616 415.312C393.646 417.927 393.511 420.542 393.21 423.141C391.076 449.124 397.828 474.904 401.605 500.703C402.212 503.885 402.346 507.136 402.001 510.355C401.51 513.625 400.528 517.917 403.512 519.464L375.487 529.375C371.908 525 374.278 518.193 373.599 512.639C372.975 507.638 370.161 503.18 368.66 498.363C367.3 494.034 367.017 489.475 366.573 484.98C364.128 460.508 356.621 436.671 354.865 412.143C354.808 409.775 354.492 407.419 353.921 405.116C352.976 402.067 351.088 399.405 349.709 396.541C347.594 392.239 346.555 387.524 345.536 382.863L339.54 355.462C333.478 364.267 333.723 375.725 332.524 386.28C330.843 401.017 327.085 415.505 324.026 430.058C323.315 433.189 322.782 436.356 322.43 439.545C321.637 448.083 323.214 456.704 322.373 465.233C321.429 475.116 317.171 484.759 318.2 494.642C318.766 500.113 320.919 505.289 322.373 510.595C323.828 515.9 324.545 521.721 322.326 526.778C314.571 524 306.24 523.103 298.05 524.162C289.051 515.182 287.455 502.655 286.842 490.083C286.228 477.511 287.71 464.92 286.105 452.467C285.633 448.783 284.896 445.191 284.774 441.516C284.377 429.736 290.184 418.711 293.074 407.262C295.674 396.956 295.922 386.218 293.801 375.808C292.384 368.928 289.948 362.25 289.079 355.278C287.899 345.505 289.901 335.659 291.912 326.007C293.262 319.495 294.603 312.983 296.133 306.508C297.776 299.554 299.73 292.453 304.121 286.761C311.146 277.651 323.62 273.608 335.281 274.492C346.943 275.376 357.83 280.553 367.461 287C375.052 291.949 382.046 297.717 388.31 304.196Z" fill="#192534"/>
<path d="M356.98 140.23C356.45 141.06 356.082 141.978 355.894 142.938C355.658 144.826 356.838 146.558 357.783 148.207C358.992 150.325 359.922 152.584 360.549 154.93C360.999 156.382 361.137 157.909 360.955 159.416C360.725 160.547 360.31 161.636 359.728 162.639C357.905 166.066 355.205 169.234 351.532 170.662C348.687 171.684 345.585 171.806 342.665 171.012C339.765 170.211 337.023 168.941 334.554 167.254C332.473 165.968 330.602 164.384 329.002 162.557C327.475 160.558 326.188 158.395 325.168 156.109C323.204 152.103 321.212 147.82 321.571 143.426C321.59 143.028 321.666 142.634 321.797 142.257C322.104 141.574 322.532 140.951 323.063 140.414C327.091 135.758 329.157 129.783 328.841 123.697L342.599 126.746C345.63 127.418 348.661 128.091 351.654 128.929C354.109 129.62 357.886 130.578 359.482 132.714C361.078 134.851 358.066 138.278 356.98 140.23Z" fill="#FBBEBE"/>
<path d="M349.615 137.946C363.424 137.946 374.618 127.027 374.618 113.557C374.618 100.087 363.424 89.1671 349.615 89.1671C335.806 89.1671 324.611 100.087 324.611 113.557C324.611 127.027 335.806 137.946 349.615 137.946Z" fill="#FBBEBE"/>
<path d="M345.592 162.759C346.65 160.503 348.935 159.075 351.022 157.657C353.109 156.238 355.224 154.424 355.63 151.964C355.655 151.408 355.796 150.863 356.045 150.362C356.848 149.183 358.755 149.772 359.898 150.638C362.674 152.747 364.562 155.741 366.403 158.661C368.785 162.211 370.824 165.97 372.494 169.888C375.147 176.713 375.468 184.164 375.761 191.45C376.025 198.082 376.28 204.814 374.628 211.243C373.589 215.314 371.795 219.266 371.691 223.457C371.38 238.682 365.96 253.234 365.582 268.459C365.554 272.862 365.781 277.262 366.262 281.639L367.149 291.522C353.42 290.755 339.729 289.579 326.075 287.995C325.678 283.445 324.347 279.033 323.129 274.63C318.141 256.631 314.944 238.204 313.583 219.607C312.855 209.733 312.11 199.896 310.986 190.059C309.976 181.116 307.993 172.117 309.182 163.192C309.805 159.135 311.113 155.208 313.054 151.568C313.667 150.119 314.722 148.887 316.075 148.041C316.752 147.722 317.47 147.496 318.209 147.368C320.35 146.945 322.523 146.696 324.706 146.622C325.239 146.579 325.777 146.628 326.292 146.77C327.212 147.217 327.967 147.931 328.454 148.814C332.661 154.984 338.615 159.829 345.592 162.759V162.759Z" fill="#F2F2F2"/>
<path d="M333.997 160.807C335.753 163.257 339.474 163.837 341.098 166.333C341.645 167.376 342.06 168.48 342.335 169.621C343.326 172.707 345.328 175.387 346.546 178.399C348.302 182.728 348.35 187.517 348.368 192.168C348.541 195.873 348.249 199.585 347.5 203.221C346.933 205.496 346.008 207.66 345.328 209.908C344.173 213.73 343.745 217.725 344.063 221.697C344.063 222.555 344.298 223.398 344.743 224.138C345.383 224.878 346.219 225.432 347.16 225.741C349.926 226.929 352.825 228.145 355.847 227.868C356.467 227.849 357.067 227.654 357.575 227.307C357.925 226.995 358.213 226.624 358.425 226.211L360.313 223.097C362.022 220.251 363.807 217.064 363.146 213.813C362.666 212.135 361.944 210.532 361.002 209.051C359.796 206.649 358.767 204.165 357.924 201.618C354.912 193.172 351.862 184.607 351.182 175.691C350.782 172.298 351.17 168.86 352.315 165.633C353.202 163.647 354.317 161.765 355.639 160.024C355.34 159.632 354.926 159.339 354.452 159.183C353.978 159.026 353.467 159.015 352.986 159.149C352.036 159.435 351.116 159.808 350.238 160.263C347.462 161.405 344.384 160.991 341.579 160.208C340.484 159.895 338.747 158.826 337.614 158.9C337.226 158.946 334.063 160.917 333.997 160.807Z" fill="#FFD255"/>
<path d="M356.102 160.705C355.535 160.263 354.657 159.858 354.157 160.374C353.989 160.597 353.867 160.851 353.798 161.12C353.307 162.409 351.862 163.045 350.55 163.542C349.237 164.039 347.821 164.316 347.028 163.367C346.777 162.998 346.654 162.56 346.676 162.118C346.698 161.676 346.864 161.252 347.15 160.908C347.731 160.225 348.431 159.648 349.218 159.204C353.562 156.214 356.52 151.673 357.452 146.567C358.67 147.511 359.476 148.87 359.709 150.371C360.02 151.836 360.058 153.346 360.37 154.811C360.832 156.911 361.862 158.872 362.098 161C362.22 162.133 362.098 163.275 362.098 164.408C362.14 165.516 362.273 166.618 362.494 167.705C360.285 165.421 358.727 162.741 356.102 160.705Z" fill="#F2F2F2"/>
<path d="M336.99 154.451C336.046 153.576 335.102 152.747 334.158 151.854C330.014 147.909 326.885 143.065 325.027 137.716C323.818 138.637 322.487 139.853 322.458 141.4C322.566 142.495 322.999 143.535 323.705 144.393C327.275 149.879 329.633 156.03 330.626 162.455C331.136 161.678 331.843 161.042 332.678 160.608C333.513 160.174 334.449 159.957 335.394 159.978C336.886 159.978 343.581 163.846 344.063 162.87C344.771 161.341 338.123 155.492 336.99 154.451Z" fill="#F2F2F2"/>
<path d="M358.075 147.12C366.957 155.745 377.831 162.166 389.783 165.845C390.971 166.097 392.073 166.643 392.984 167.429C393.664 168.258 394.122 169.239 394.315 170.284C396.619 179.071 397.393 188.162 398.158 197.197C398.358 198.692 398.327 200.207 398.064 201.692C397.507 204.105 395.75 206.058 394.022 207.872C388.602 213.537 382.418 219.459 381.502 227.159C381.432 228.644 381.252 230.121 380.964 231.58C380.491 233.293 379.443 234.804 378.801 236.471C375.648 244.678 382.777 254.616 378.433 262.261C380.784 266.667 382.397 271.412 383.211 276.316C383.357 278.175 383.793 280.001 384.504 281.732C385.798 284.366 388.461 286.042 390.557 288.179C396.95 294.571 397.733 304.353 398.111 313.278C398.347 318.307 398.272 324.082 394.334 327.379C392.058 329.304 388.952 329.93 385.977 330.409C382.021 331.054 377.715 331.514 374.212 329.608C371.701 328.245 369.991 325.859 368.358 323.557C365.261 319.163 362.154 314.779 359.218 310.275C354.572 303.174 350.191 295.059 351.532 286.733C351.154 295.253 349.313 303.837 345.026 311.261C340.739 318.684 333.836 324.883 325.461 327.333C317.086 329.783 307.294 328.051 301.052 322.083C299.015 320.037 297.265 317.735 295.85 315.239C292.297 309.305 289.704 302.871 288.164 296.164C287.758 294.424 287.455 292.48 288.352 290.924C288.777 290.187 289.429 289.607 289.873 288.879C291.365 286.401 289.929 283.279 288.485 280.755C286.284 280.958 284.708 278.434 284.906 276.279C285.104 274.124 286.426 272.254 287.361 270.292C290.099 264.508 289.495 257.775 288.173 251.539C286.851 245.304 284.878 239.105 285.029 232.741C285.189 226.008 280.222 219.947 276.436 214.32C274.321 211.151 271.856 208.204 270.015 204.879C266.176 197.882 265.289 189.7 267.541 182.074C268.864 178.158 270.598 174.386 272.716 170.818L275.832 165.117C276.412 163.755 277.313 162.545 278.461 161.585C279.609 160.625 280.973 159.942 282.441 159.591L303.998 151.301C306.755 150.383 309.372 149.107 311.779 147.507C314.413 145.572 316.377 142.901 318.889 140.838C319.255 140.463 319.694 140.163 320.181 139.956C320.667 139.749 321.191 139.639 321.722 139.632C323.743 139.807 324.46 142.293 324.668 144.237C325.14 148.584 328.445 152.268 329.569 156.496C335.649 179.845 348.519 201.379 352.051 225.216C356.017 215.922 359.983 206.611 365.063 197.861C365.864 196.604 366.538 195.275 367.074 193.891C367.684 191.894 367.911 189.806 367.744 187.729C367.489 181.733 365.856 175.875 364.241 170.082C362.145 162.197 360.256 154.93 358.075 147.12Z" fill="#3F3D56"/>
<path d="M399.159 218.465C399.575 222.388 399.981 226.321 400.727 230.199C401.595 234.684 402.917 239.068 404.23 243.453C404.871 245.917 405.789 248.305 406.968 250.572C407.395 251.231 407.735 251.939 407.978 252.682C408.441 254.524 407.383 256.366 406.93 258.208C405.571 263.734 409.65 269.878 407.081 274.971C406.307 276.518 404.957 277.799 404.447 279.457C403.852 281.363 404.447 283.399 404.758 285.37C405.561 290.896 403.625 296.515 401.718 301.829L398.47 310.8C395.505 305.421 392.512 299.987 388.414 295.372C386.95 293.715 385.354 292.176 384.004 290.426C381.991 287.676 380.4 284.654 379.283 281.455C376.4 273.855 374.753 265.862 374.401 257.766C374.167 255.464 374.44 253.14 375.204 250.95C375.829 249.683 376.529 248.453 377.3 247.266C379.83 242.817 380.35 237.549 380.303 232.465C380.255 227.38 379.698 222.278 380.303 217.221C380.796 212.999 382.076 208.901 384.08 205.128C385.262 202.684 387.018 200.548 389.207 198.892C390.84 197.699 392.832 197.068 394.872 197.096C397.96 197.271 397.252 199.859 397.516 202.355L399.159 218.465Z" fill="#3F3D56"/>
<path d="M260.271 205.929C258.344 211.455 256.607 217.031 255.058 222.655C253.548 228.182 252.197 233.739 251.008 239.326C250.397 241.783 250.055 244.296 249.988 246.824C250.109 249.766 250.626 252.68 251.527 255.491C257.608 276.868 268.693 296.588 281.176 315.129C284.743 310.79 288.98 307.017 293.735 303.947C294.124 303.723 294.448 303.406 294.679 303.026C294.798 302.668 294.833 302.288 294.781 301.915C294.729 301.542 294.591 301.185 294.377 300.871C290.93 293.982 285.473 287.912 283.754 280.424C283.036 277.311 283.008 274.068 282.196 270.974C281.148 266.967 278.806 263.301 278.268 259.193C277.692 254.717 279.212 249.836 277.059 245.866C281.45 244.199 283.99 239.787 285.85 235.559C287.838 231.234 289.259 226.682 290.08 222.011C291.373 213.055 289.576 203.933 284.972 196.083C282.723 192.167 279.837 188.633 276.427 185.62C275.303 184.634 272.65 181.807 271.016 181.834C268.835 181.88 268.136 185.325 267.513 186.872C264.992 193.191 262.499 199.518 260.271 205.929Z" fill="#3F3D56"/>
<path d="M299.381 309.022C299.664 309.225 299.985 309.501 299.91 309.833C299.834 310.165 299.561 310.247 299.315 310.386C298.039 311.269 297.086 312.528 296.596 313.978C295.026 317.427 293.658 320.96 292.498 324.561C290.385 321.473 287.899 318.643 285.095 316.133C282.942 314.199 280.534 312.366 279.382 309.75C279.382 309.676 284.33 306.112 284.783 305.725C286.171 304.518 287.918 301.175 289.353 300.438C290.977 299.609 292.526 302.861 293.763 304.168C295.465 305.966 297.347 307.592 299.381 309.022V309.022Z" fill="#FBBEBE"/>
<path d="M376.167 109.743C376.101 108.537 375.94 107.201 374.996 106.418C374.167 105.859 373.169 105.59 372.163 105.654C366.658 105.479 360.965 106.382 355.771 104.576C352.353 103.388 349.435 101.104 346.102 99.6855C342.769 98.2671 338.501 97.8895 335.81 100.275C333.77 102.117 333.213 104.945 332.505 107.551C330.946 113.304 328.17 118.675 324.356 123.32C321.797 122.546 319.966 120.317 318.785 117.978C314.772 110.001 316.746 100.478 319.597 92.0224C320.542 89.1855 321.59 86.3763 322.638 83.5763L324.942 77.3869C327.966 77.0972 330.775 75.7335 332.836 73.5553L333.827 75.904C336.388 75.8141 338.859 74.9624 340.909 73.4632C341.702 74.9184 343.742 75.3053 345.394 74.8355C347.046 74.3658 348.472 73.4632 350.115 72.9934C354.506 71.6119 359.189 73.7395 363.797 73.979C365.747 73.9327 367.698 73.988 369.642 74.1448C375.081 75.0013 378.924 79.9934 380.586 85.1145C381.691 88.5224 382.607 92.7132 386.053 93.9198C386.129 95.2092 383.787 95.4579 383.589 96.6829C383.565 97.0913 383.664 97.4976 383.872 97.8526L387.035 104.475C385.523 104.845 383.932 104.768 382.465 104.254C381.039 107.524 376.308 112.239 376.167 109.743Z" fill="#192534"/>
<path d="M536.461 124.158C538.064 129.208 539.326 134.356 540.238 139.567C540.918 143.472 541.315 147.811 539.02 151.071C547.764 138.241 556.895 125.024 570.18 116.743C567.475 113.882 565.417 110.498 564.14 106.81C562.863 103.122 562.395 99.2136 562.768 95.3381C562.843 94.5644 551.862 98.6079 551.021 99.0684C547.169 101.159 543.637 103.757 539.879 105.995C537.934 107.146 529.833 109.872 529.757 111.521C529.757 112.58 532.977 115.822 533.581 116.937C534.767 119.252 535.731 121.67 536.461 124.158Z" fill="#FBBEBE"/>
<path d="M577.092 608.061C574.933 606.577 572.403 605.691 569.77 605.497C567.137 605.302 564.499 605.806 562.135 606.955C557.858 609.111 554.978 613.191 551.088 615.954C544.402 620.688 535.574 621.066 527.746 623.626C525.669 624.308 523.459 625.321 522.581 627.311C522.287 628.147 522.169 629.033 522.236 629.914C522.302 630.796 522.551 631.656 522.968 632.441C524.277 635.286 526.57 637.591 529.446 638.953C532.958 640.592 536.999 640.666 540.89 640.712L574.694 641.099C585.08 641.218 595.533 641.338 605.854 642.6C608.261 642.895 610.867 643.217 612.992 642.066C616.448 640.224 616.844 635.563 616.58 631.722C615.884 621.991 613.655 612.423 609.97 603.354C609.564 602.35 609.026 601.208 607.884 601.024C607.073 600.988 606.276 601.236 605.636 601.724C596.1 607.25 584.023 610.372 573.882 605.951" fill="white"/>
<path d="M594.013 397.692C590.236 419.088 592.7 441.074 596.949 462.378C597.732 466.62 598.763 470.814 600.037 474.941C601.557 479.638 603.606 484.151 605.032 488.876C608.658 500.85 608.148 513.653 607.61 526.151L605.136 583.026C604.928 587.797 604.739 592.679 606.212 597.229C606.807 599.071 607.534 601.374 606.033 602.617C605.446 603.029 604.759 603.286 604.041 603.363C597.284 604.578 590.305 603.556 584.212 600.462L583.541 543.007C583.333 525.295 583.116 507.509 580.321 490.018C578.102 476.111 574.25 462.387 573.995 448.313C573.73 433.576 577.432 419.033 581.209 404.747C582.021 401.69 584.986 399.451 587.422 397.379C588.272 396.561 589.307 395.949 590.444 395.592C591.577 395.288 593.314 396.762 594.013 397.692Z" fill="#3F3D56"/>
<path opacity="0.1" d="M594.013 397.692C590.236 419.088 592.7 441.074 596.949 462.378C597.732 466.62 598.763 470.814 600.037 474.941C601.557 479.638 603.606 484.151 605.032 488.876C608.658 500.85 608.148 513.653 607.61 526.151L605.136 583.026C604.928 587.797 604.739 592.679 606.212 597.229C606.807 599.071 607.534 601.374 606.033 602.617C605.446 603.029 604.759 603.286 604.041 603.363C597.284 604.578 590.305 603.556 584.212 600.462L583.541 543.007C583.333 525.295 583.116 507.509 580.321 490.018C578.102 476.111 574.25 462.387 573.995 448.313C573.73 433.576 577.432 419.033 581.209 404.747C582.021 401.69 584.986 399.451 587.422 397.379C588.272 396.561 589.307 395.949 590.444 395.592C591.577 395.288 593.314 396.762 594.013 397.692Z" fill="black"/>
<path d="M523.11 330.824C521.712 336.433 524.677 342.245 524.347 348.011C524.158 351.501 522.751 354.983 523.402 358.409C524.054 361.836 526.566 364.414 527.907 367.555C528.884 370.178 529.401 372.943 529.436 375.734C529.823 382.624 529.512 389.55 529.247 396.412C528.804 407.925 528.473 419.503 530.031 430.914C531.388 440.801 534.143 450.457 538.218 459.605C539.453 462.094 540.473 464.679 541.267 467.333C541.789 469.806 542.136 472.311 542.306 474.83C543.204 483.024 545.458 491.021 548.982 498.51C551.39 503.641 555.592 507.721 556.923 513.164C558.188 518.378 557.338 523.876 558.254 529.154C558.925 533.068 560.558 536.771 561.465 540.639C562.645 545.641 562.617 550.826 563.212 555.929C564.911 570.666 571.776 585.403 567.678 599.697C566.856 602.571 565.582 605.491 566.158 608.42C566.441 609.857 567.159 611.275 566.838 612.703C566.573 613.918 565.61 614.858 565.119 616.009C564.175 618.164 565.176 620.725 566.856 622.392C568.649 623.946 570.733 625.147 572.994 625.929C579.953 628.83 587.158 631.778 594.712 631.713C595.629 631.761 596.544 631.597 597.384 631.234C598.743 630.543 599.414 629.042 599.99 627.66L603.861 618.321C604.333 617.188 604.805 615.862 604.154 614.812C603.7 614.236 603.151 613.738 602.53 613.338C599.404 610.768 600.113 605.97 600.944 602.11C603.066 592.198 604.242 582.116 604.456 571.992C604.872 551.803 601.463 531.733 598.064 511.81C596.883 504.893 595.694 497.93 593.342 491.299C590.991 484.667 587.526 478.284 588.092 471.395C588.697 463.953 586.714 456.151 588.092 448.811C589.471 441.47 591.652 434.285 593.059 426.954C594.882 417.439 595.335 407.741 595.892 398.088C596.128 394.146 596.43 390.075 598.319 386.575C599.423 384.53 601.029 382.78 602.265 380.8C605.457 375.651 605.967 369.268 609.017 364.037C610.461 361.559 612.454 359.376 613.511 356.724C614.254 354.631 614.643 352.435 614.663 350.221C614.963 344.662 614.646 339.088 613.719 333.596C597.645 325.618 579.819 321.584 561.786 321.843C554.883 321.954 547.906 322.636 541.428 324.966C535.253 327.204 529.625 330.345 523.11 330.824Z" fill="#3F3D56"/>
<path d="M561.823 622.632C559.047 626.003 559.236 630.82 557.461 634.789C555.308 639.607 550.511 642.692 545.96 645.501L517.633 663.001C516.084 663.922 514.423 665.055 513.856 666.768C513.587 667.862 513.636 669.007 513.998 670.075C514.674 672.386 515.934 674.495 517.663 676.207C519.392 677.919 521.534 679.181 523.893 679.875C526.4 680.458 528.975 680.715 531.551 680.639L544.289 680.805C548.169 680.953 552.056 680.805 555.913 680.363C559.444 679.866 562.881 678.88 566.394 678.254C572.786 677.121 579.358 677.222 585.76 676.126C589.68 675.375 593.552 674.4 597.355 673.207C601.982 671.853 606.694 670.443 610.66 667.763C611.751 667.115 612.637 666.184 613.219 665.074C613.889 663.554 613.521 661.813 613.143 660.201L607.062 634.136C606.719 631.965 605.908 629.89 604.683 628.047C603.332 626.297 600.906 625.137 598.8 625.883C597.931 626.269 597.111 626.751 596.354 627.32C593.238 629.318 589.244 629.65 585.562 629.024C583.182 628.609 580.038 627.974 578.121 626.436C576.667 625.266 576.233 623.451 574.996 622.125C574.128 621.256 573.084 620.575 571.929 620.126C570.775 619.676 569.536 619.469 568.294 619.517C567.052 619.564 565.834 619.866 564.719 620.403C563.604 620.94 562.618 621.699 561.823 622.632V622.632Z" fill="white"/>
<path d="M543.458 120.566C562.3 120.566 577.574 105.667 577.574 87.2882C577.574 68.9094 562.3 54.0105 543.458 54.0105C524.617 54.0105 509.343 68.9094 509.343 87.2882C509.343 105.667 524.617 120.566 543.458 120.566Z" fill="#FBBEBE"/>
<path d="M517.142 89.2408C520.409 87.4539 520.409 82.3052 523.752 80.5921C527.094 78.8789 530.89 81.8539 533.034 84.8566C536.158 89.254 538.327 94.2283 539.407 99.4737C539.709 100.966 539.993 102.596 541.145 103.637C542.297 104.678 543.807 104.807 545.28 104.954C549.592 105.371 553.911 105.752 558.235 106.096C563.051 106.474 568.131 106.778 572.503 104.761C574.228 104.008 575.71 102.811 576.79 101.297C577.655 99.8442 578.274 98.2642 578.622 96.6184C580.878 88.246 583.154 79.7724 583.343 71.1145C583.418 67.5408 583.097 63.8381 581.332 60.7066C580.302 58.8645 578.792 57.2618 578.367 55.2355C577.942 53.2092 579.311 50.6302 581.464 50.8513C579.518 50.9294 577.579 50.5701 575.798 49.8013C574.089 48.8802 572.824 46.9 573.428 45.0947C568.632 45.6934 565.138 41.0697 561.399 38.0763C560.791 37.4883 559.97 37.1574 559.114 37.1552C558.457 37.3151 557.822 37.5533 557.225 37.8645C555.337 38.5092 553.363 37.2842 551.427 36.75C546.234 35.3316 539.634 38.7579 535.781 35.0737C536.15 37.4224 533.194 38.9974 530.758 38.9513C528.322 38.9052 525.81 38.0302 523.506 38.8224C523.84 39.4177 524.035 40.0776 524.077 40.7548C524.118 41.4321 524.006 42.11 523.748 42.7401C523.49 43.3702 523.093 43.9369 522.584 44.3997C522.075 44.8625 521.468 45.2099 520.806 45.4171L521.948 47.8487C520.771 48.0782 519.683 48.6242 518.807 49.4249C517.931 50.2256 517.302 51.2493 516.991 52.3803C515.735 57.2158 516.047 64.0868 516.349 69.0605C516.5 71.2434 518.681 88.421 517.142 89.2408Z" fill="#192534"/>
<path d="M546.253 130.182C529.115 148.98 524.753 175.442 521.099 200.357L515.716 237.143C514.319 246.686 512.884 256.228 511.666 265.797C510.816 272.346 510.023 278.996 510.948 285.536C511.675 290.693 513.441 295.667 514.914 300.632C518.747 313.653 520.654 327.141 520.579 340.688C521.722 337.409 525.678 336.083 529.153 335.346C558.309 329.175 588.728 332.344 615.891 344.382C620.659 331.349 619.762 317.091 621.094 303.312C622.982 283.666 629.488 264.628 631.414 245.018C632.122 237.714 632.207 230.374 632.283 223.033C632.34 217.645 632.396 212.201 631.244 206.924C629.96 201.084 627.25 195.641 624.446 190.345C616.693 175.623 608.08 161.348 598.649 147.589C593.903 140.663 588.952 133.875 583.796 127.225C581.184 123.854 578.518 120.52 575.798 117.222C573.164 114.026 572.021 111.254 567.838 113.17C559.935 116.78 552.004 123.872 546.253 130.182Z" fill="#FFD255"/>
<path d="M556.073 286.65C551.892 286.797 547.706 286.668 543.543 286.263C540.455 285.968 537.302 285.526 534.29 286.263C532.98 286.585 531.754 287.172 530.692 287.986C530.298 288.327 530.016 288.774 529.878 289.27C529.74 289.766 529.754 290.29 529.917 290.779C530.081 291.268 530.387 291.699 530.798 292.021C531.208 292.343 531.707 292.541 532.231 292.591L535.46 292.867C537.509 293.042 539.643 293.245 541.239 294.709C541.894 295.285 542.311 296.074 542.41 296.929C542.608 299.075 540.701 300.245 538.992 301.138C536.562 302.251 534.315 303.71 532.326 305.467C530.767 306.936 529.788 308.892 529.559 310.993C529.552 311.181 529.595 311.367 529.685 311.532C529.774 311.698 529.907 311.838 530.07 311.938C530.233 312.038 530.419 312.094 530.611 312.101C530.803 312.109 530.994 312.066 531.164 311.979C534.941 310.137 537.406 304.675 541.551 305.587C537.78 306.751 534.551 309.174 532.429 312.43C531.906 313.208 531.667 314.135 531.752 315.061C531.836 315.987 532.239 316.859 532.895 317.534C533.551 318.209 534.422 318.648 535.365 318.78C536.309 318.912 537.271 318.729 538.095 318.261C538.709 317.91 539.301 317.526 539.87 317.109C542.678 314.892 545.194 312.342 547.358 309.52C544.336 315.737 541.277 323.013 544.752 329.193C544.925 329.533 545.196 329.817 545.531 330.01C545.866 330.203 546.251 330.297 546.64 330.28C547.736 330.17 548.057 329.166 548.236 328.282C548.803 325.436 548.944 322.433 550.379 319.9C553.703 314.024 561.899 313.453 568.141 310.588C575.629 307.199 580.756 299.904 582.824 292.112C583.547 289.839 583.674 287.426 583.192 285.093C581.804 279.853 575.175 278.646 570.917 281.179C565.695 284.412 562.664 286.447 556.073 286.65Z" fill="#FBBEBE"/>
<path opacity="0.1" d="M549.444 183.557C556.054 193.513 567.527 199.122 577.366 206.113C579.766 207.638 581.859 209.58 583.541 211.842C586.024 215.582 586.374 220.334 585.864 224.737C585.222 230.549 583.305 236.139 581.407 241.684L577.281 253.704C574.665 261.33 571.965 269.113 566.988 275.524C565.714 277.154 564.231 278.895 564.288 280.939C564.398 282.121 564.814 283.255 565.497 284.237C567.089 286.772 569.188 288.968 571.668 290.696C574.148 292.424 576.959 293.648 579.934 294.295C581.715 294.737 583.582 294.737 585.363 294.295C587.913 293.558 589.83 291.532 591.605 289.616C600.103 280.47 608.601 271.195 614.739 260.464C620.735 249.992 624.323 238.359 627.628 226.837C628.989 222.595 629.937 218.238 630.46 213.822C631.159 205.533 628.931 197.243 625.286 189.755C621.641 182.267 616.627 175.488 611.462 168.903C606.588 162.434 601.171 156.371 595.268 150.776C584.995 141.409 572.427 135.901 558.679 141.216C548.972 144.974 545.337 152.812 544.468 162.851C543.733 170.1 545.483 177.382 549.444 183.557V183.557Z" fill="black"/>
<path d="M552.882 181.033C559.491 190.989 570.973 196.599 580.803 203.589C583.195 205.129 585.279 207.083 586.95 209.355C589.433 213.095 589.783 217.838 589.273 222.25C588.621 228.062 586.714 233.653 584.806 239.197L580.68 251.171C578.065 258.797 575.364 266.571 570.388 272.991C569.123 274.621 567.64 276.353 567.697 278.407C567.801 279.586 568.217 280.719 568.905 281.695C570.496 284.231 572.592 286.429 575.071 288.158C577.55 289.888 580.359 291.113 583.333 291.762C585.118 292.204 586.988 292.204 588.772 291.762C591.322 291.034 593.229 288.999 595.014 287.092C603.512 277.937 612.01 268.671 618.148 257.941C624.144 247.468 627.732 235.836 631.036 224.304C632.401 220.066 633.35 215.712 633.869 211.299C634.568 203.009 632.34 194.72 628.704 187.222C625.069 179.725 620.046 172.955 614.881 166.37C609.989 159.935 604.56 153.906 598.649 148.345C588.385 138.987 575.817 133.47 562.069 138.793C552.353 142.551 548.727 150.38 547.849 160.429C547.156 167.65 548.925 174.892 552.882 181.033V181.033Z" fill="#FFD255"/>
<path d="M761.672 511.405C761.679 513.807 761.426 516.203 760.917 518.553C760.822 518.995 760.718 519.474 760.615 519.851C757.933 530.342 750.37 538.014 741.343 538.503C741.04 538.503 740.738 538.503 740.398 538.503C730.852 538.503 722.779 530.471 720.116 519.409C720.041 519.114 719.974 518.82 719.908 518.488C719.399 516.138 719.146 513.743 719.153 511.341C719.153 496.355 728.661 484.216 740.398 484.216C752.135 484.216 761.672 496.447 761.672 511.405Z" fill="#3F3D56"/>
<path opacity="0.1" d="M761.672 511.405C761.679 513.807 761.426 516.203 760.917 518.553C760.822 518.995 760.719 519.474 760.615 519.851C760.294 519.851 759.982 519.851 759.67 519.851C757.332 519.728 755.008 519.42 752.721 518.93C750.694 519.541 748.624 520.003 746.527 520.312C744.919 520.548 743.298 520.696 741.673 520.754H740.03C738.085 520.754 736.142 520.628 734.214 520.376C731.096 519.97 728.034 519.229 725.083 518.166C723.468 518.69 721.822 519.121 720.154 519.455C720.078 519.161 720.012 518.866 719.946 518.534C719.437 516.184 719.184 513.789 719.191 511.387C719.191 496.401 728.699 484.262 740.436 484.262C752.173 484.262 761.672 496.447 761.672 511.405Z" fill="black"/>
<path d="M806.996 460.876C807.005 454.282 805.42 447.778 802.369 441.893L777.384 449.474L799.319 436.892C795.64 431.709 790.814 427.398 785.199 424.277C779.584 421.156 773.322 419.304 766.875 418.858C765.849 417.339 764.723 415.887 763.504 414.51L727.623 425.407L757.055 408.524C751.425 404.309 744.816 401.513 737.815 400.382C730.813 399.252 723.633 399.823 716.911 402.044C710.189 404.265 704.132 408.068 699.276 413.117C694.42 418.165 690.914 424.303 689.07 430.988L719.805 465.5L686.463 441.976C678.018 447.819 672.005 456.428 669.521 466.233C667.037 476.039 668.247 486.388 672.931 495.396C677.615 504.404 685.46 511.47 695.038 515.308C704.616 519.146 715.288 519.5 725.111 516.305C733.996 519.491 743.706 519.753 752.759 517.051C759.069 518.406 765.611 518.364 771.903 516.927C778.194 515.49 784.076 512.696 789.114 508.75C794.153 504.803 798.22 499.805 801.018 494.123C803.815 488.441 805.27 482.22 805.277 475.917C805.277 474.996 805.277 474.075 805.183 473.154C806.406 469.171 807.017 465.034 806.996 460.876V460.876Z" fill="#FFD255"/>
<path opacity="0.1" d="M806.25 468.687C793.055 466.247 779.525 466.079 766.271 468.19C751.267 470.612 735.932 475.936 721.259 472.049C712.647 469.765 705.207 464.478 696.793 461.539C688.676 458.777 679.932 458.267 671.535 460.066C668.335 467.533 667.407 475.74 668.861 483.708C670.315 491.676 674.091 499.067 679.736 504.998C685.381 510.929 692.657 515.149 700.695 517.154C708.733 519.159 717.193 518.864 725.064 516.305C733.949 519.491 743.659 519.753 752.711 517.051C759.022 518.406 765.564 518.364 771.856 516.927C778.147 515.49 784.029 512.696 789.067 508.75C794.106 504.803 798.173 499.805 800.97 494.124C803.767 488.442 805.223 482.22 805.23 475.917C805.23 474.996 805.23 474.075 805.136 473.154C805.591 471.686 805.963 470.195 806.25 468.687Z" fill="black"/>
</svg>
